<svg viewBox="0 -0.04 81.283 81.283" xmlns="http://www.w3.org/2000/svg" fill="#000000"><g id="SVGRepo_bgCarrier" stroke-width="0"></g><g id="SVGRepo_tracerCarrier" stroke-linecap="round" stroke-linejoin="round"></g><g id="SVGRepo_iconCarrier"> <g id="price_tag_green" data-name="price tag green" transform="translate(-61.427 -808.343)"> <path id="Path_188" data-name="Path 188" d="M76.982,830.724a6.9,6.9,0,1,1,4.881-11.78,6.9,6.9,0,0,1-4.881,11.78Zm0-10.48a3.585,3.585,0,1,0,0,7.171,3.536,3.536,0,0,0,2.528-1.054,3.573,3.573,0,0,0,0-5.071,3.549,3.549,0,0,0-2.533-1.046Z" fill="#f4f4f4"></path> <path id="Path_189" data-name="Path 189" d="M99.733,808.343H78.9L61.427,825.8v20.708l43.048,43.046,38.235-38.24Zm-17.87,20.364a6.9,6.9,0,1,1,0-9.763A6.875,6.875,0,0,1,81.863,828.707Z" fill="#f9e71f"></path> <g id="Group_72" data-name="Group 72"> <path id="Path_190" data-name="Path 190" d="M73.791,824.672a1.729,1.729,0,0,0,2.442,0l1.526-1.525a1.728,1.728,0,0,0,0-2.444L66.973,809.915a1.726,1.726,0,0,0-2.439,0l-1.528,1.528a1.735,1.735,0,0,0,0,2.444Z" fill="#163844"></path> </g> </g> </g></svg>